<svg version="1.1" xmlns="http://www.w3.org/2000/svg" viewBox="0 0 630.021240234375 552.8970879448784" width="1260.04248046875" height="1105.7941758897568">
  <!-- svg-source:excalidraw -->
  
  <defs>
    <style>
      @font-face {
        font-family: "Virgil";
        src: url("https://excalidraw.com/Virgil.woff2");
      }
      @font-face {
        font-family: "Cascadia";
        src: url("https://excalidraw.com/Cascadia.woff2");
      }
    </style>
  </defs>
  <rect x="0" y="0" width="630.021240234375" height="552.8970879448784" fill="#ffffff"/><g transform="translate(176.18310546875 10) rotate(0 96.5 11.5)"><text x="0" y="18" font-family="Helvetica, Segoe UI Emoji" font-size="20px" fill="#000000" text-anchor="start" style="white-space: pre;" direction="ltr">Enkle analoge kretser</text></g><g transform="translate(221.18310546875 82.84244113498266) rotate(0 51.5 11.5)"><text x="0" y="18" font-family="Helvetica, Segoe UI Emoji" font-size="20px" fill="#000000" text-anchor="start" style="white-space: pre;" direction="ltr">Hello World</text></g><g transform="translate(188.18310546875 155.68488226996527) rotate(0 84.5 11.5)"><text x="0" y="18" font-family="Helvetica, Segoe UI Emoji" font-size="20px" fill="#000000" text-anchor="start" style="white-space: pre;" direction="ltr">Styr LED fra knapp</text></g><g transform="translate(209.18310546875 228.5273234049479) rotate(0 63.5 11.5)"><text x="0" y="18" font-family="Helvetica, Segoe UI Emoji" font-size="20px" fill="#000000" text-anchor="start" style="white-space: pre;" direction="ltr">WiFi og REST</text></g><g transform="translate(214.18310546875 350.1778903537327) rotate(0 58.5 11.5)"><text x="0" y="18" font-family="Helvetica, Segoe UI Emoji" font-size="20px" fill="#000000" text-anchor="start" style="white-space: pre;" direction="ltr">Les potmeter</text></g><g transform="translate(10 350.1778903537327) rotate(0 60.5 11.5)"><text x="0" y="18" font-family="Helvetica, Segoe UI Emoji" font-size="20px" fill="#000000" text-anchor="start" style="white-space: pre;" direction="ltr">LED og PWM</text></g><g transform="translate(227.18310546875 447.0546468098958) rotate(0 45.5 11.5)"><text x="0" y="18" font-family="Helvetica, Segoe UI Emoji" font-size="20px" fill="#000000" text-anchor="start" style="white-space: pre;" direction="ltr">I2C OLED</text></g><g transform="translate(152.68310546875 519.8970879448784) rotate(0 120 11.5)"><text x="0" y="18" font-family="Helvetica, Segoe UI Emoji" font-size="20px" fill="#000000" text-anchor="start" style="white-space: pre;" direction="ltr">Nevralt nettverk inferens</text></g><g stroke-linecap="round"><g transform="translate(273.17327880859375 41.640869140625) rotate(0 -0.49017333984375 16.88519287109375)"><path d="M0 0 C-0.16 5.63, -0.82 28.14, -0.98 33.77 M0 0 C-0.16 5.63, -0.82 28.14, -0.98 33.77" stroke="#000000" stroke-width="1" fill="none"/></g><g transform="translate(273.17327880859375 41.640869140625) rotate(0 -0.49017333984375 16.88519287109375)"><path d="M-6.29 17.74 C-4.78 22.3, -3.27 26.87, -0.98 33.77 M-6.29 17.74 C-4.34 23.64, -2.38 29.55, -0.98 33.77" stroke="#000000" stroke-width="1" fill="none"/></g><g transform="translate(273.17327880859375 41.640869140625) rotate(0 -0.49017333984375 16.88519287109375)"><path d="M5.26 18.07 C3.48 22.54, 1.7 27.02, -0.98 33.77 M5.26 18.07 C2.96 23.86, 0.66 29.64, -0.98 33.77" stroke="#000000" stroke-width="1" fill="none"/></g></g><g stroke-linecap="round"><g transform="translate(272.982177734375 112.488037109375) rotate(0 -0.299072265625 18.895233154296875)"><path d="M0 0 C-0.1 6.3, -0.5 31.49, -0.6 37.79 M0 0 C-0.1 6.3, -0.5 31.49, -0.6 37.79" stroke="#000000" stroke-width="1" fill="none"/></g><g transform="translate(272.982177734375 112.488037109375) rotate(0 -0.299072265625 18.895233154296875)"><path d="M-6.78 19.93 C-4.38 26.87, -1.97 33.82, -0.6 37.79 M-6.78 19.93 C-5.21 24.47, -3.64 29, -0.6 37.79" stroke="#000000" stroke-width="1" fill="none"/></g><g transform="translate(272.982177734375 112.488037109375) rotate(0 -0.299072265625 18.895233154296875)"><path d="M6.15 20.14 C3.52 27, 0.9 33.86, -0.6 37.79 M6.15 20.14 C4.43 24.62, 2.72 29.1, -0.6 37.79" stroke="#000000" stroke-width="1" fill="none"/></g></g><g stroke-linecap="round"><g transform="translate(272.4088134765625 185.57342529296875) rotate(0 0.2742919921875 19.1728515625)"><path d="M0 0 C0.09 6.39, 0.46 31.95, 0.55 38.35 M0 0 C0.09 6.39, 0.46 31.95, 0.55 38.35" stroke="#000000" stroke-width="1" fill="none"/></g><g transform="translate(272.4088134765625 185.57342529296875) rotate(0 0.2742919921875 19.1728515625)"><path d="M-6.27 20.42 C-4.78 24.32, -3.3 28.22, 0.55 38.35 M-6.27 20.42 C-3.9 26.65, -1.53 32.87, 0.55 38.35" stroke="#000000" stroke-width="1" fill="none"/></g><g transform="translate(272.4088134765625 185.57342529296875) rotate(0 0.2742919921875 19.1728515625)"><path d="M6.85 20.24 C5.48 24.17, 4.11 28.11, 0.55 38.35 M6.85 20.24 C4.66 26.52, 2.47 32.81, 0.55 38.35" stroke="#000000" stroke-width="1" fill="none"/></g></g><g stroke-linecap="round"><g transform="translate(235.20108608260853 260.9406534830729) rotate(0 -65.31420091028005 40.056498209635436)"><path d="M0 0 C-21.77 13.35, -108.86 66.76, -130.63 80.11 M0 0 C-21.77 13.35, -108.86 66.76, -130.63 80.11" stroke="#000000" stroke-width="1" fill="none"/></g><g transform="translate(235.20108608260853 260.9406534830729) rotate(0 -65.31420091028005 40.056498209635436)"><path d="M-111.96 56.63 C-119.17 65.7, -126.38 74.77, -130.63 80.11 M-111.96 56.63 C-117.49 63.58, -123.02 70.54, -130.63 80.11" stroke="#000000" stroke-width="1" fill="none"/></g><g transform="translate(235.20108608260853 260.9406534830729) rotate(0 -65.31420091028005 40.056498209635436)"><path d="M-101.23 74.12 C-112.59 76.44, -123.95 78.75, -130.63 80.11 M-101.23 74.12 C-109.94 75.9, -118.64 77.67, -130.63 80.11" stroke="#000000" stroke-width="1" fill="none"/></g></g><g stroke-linecap="round"><g transform="translate(274.1842108066643 261.7492482721503) rotate(0 -0.41590025978931067 40.959970590487416)"><path d="M0 0 C-0.14 13.65, -0.69 68.27, -0.83 81.92 M0 0 C-0.14 13.65, -0.69 68.27, -0.83 81.92" stroke="#000000" stroke-width="1" fill="none"/></g><g transform="translate(274.1842108066643 261.7492482721503) rotate(0 -0.41590025978931067 40.959970590487416)"><path d="M-10.81 53.63 C-7.56 62.83, -4.32 72.03, -0.83 81.92 M-10.81 53.63 C-7.63 62.65, -4.45 71.67, -0.83 81.92" stroke="#000000" stroke-width="1" fill="none"/></g><g transform="translate(274.1842108066643 261.7492482721503) rotate(0 -0.41590025978931067 40.959970590487416)"><path d="M9.71 53.83 C6.28 62.97, 2.86 72.1, -0.83 81.92 M9.71 53.83 C6.35 62.79, 2.99 71.74, -0.83 81.92" stroke="#000000" stroke-width="1" fill="none"/></g></g><g stroke-linecap="round"><g transform="translate(272.77862548828125 478.61181640625) rotate(0 -0.09552001953125 19.3853759765625)"><path d="M0 0 C-0.03 6.46, -0.16 32.31, -0.19 38.77 M0 0 C-0.03 6.46, -0.16 32.31, -0.19 38.77" stroke="#000000" stroke-width="1" fill="none"/></g><g transform="translate(272.77862548828125 478.61181640625) rotate(0 -0.09552001953125 19.3853759765625)"><path d="M-6.73 20.52 C-5.35 24.37, -3.97 28.21, -0.19 38.77 M-6.73 20.52 C-5.01 25.34, -3.28 30.15, -0.19 38.77" stroke="#000000" stroke-width="1" fill="none"/></g><g transform="translate(272.77862548828125 478.61181640625) rotate(0 -0.09552001953125 19.3853759765625)"><path d="M6.53 20.59 C5.11 24.42, 3.7 28.25, -0.19 38.77 M6.53 20.59 C4.76 25.39, 2.98 30.19, -0.19 38.77" stroke="#000000" stroke-width="1" fill="none"/></g></g><g transform="translate(409.790771484375 350.1778903537327) rotate(0 36.5 11.5)"><text x="0" y="18" font-family="Helvetica, Segoe UI Emoji" font-size="20px" fill="#000000" text-anchor="start" style="white-space: pre;" direction="ltr">TM1638</text></g><g transform="translate(568.021240234375 350.1778903537327) rotate(0 26 11.5)"><text x="0" y="18" font-family="Helvetica, Segoe UI Emoji" font-size="20px" fill="#000000" text-anchor="start" style="white-space: pre;" direction="ltr">Servo</text></g><g stroke-linecap="round"><g transform="translate(273.96703970599987 377.12120044914946) rotate(0 -0.0630683518332198 31.6764729817707)"><path d="M0 0 C-0.02 10.56, -0.11 52.79, -0.13 63.35 M0 0 C-0.02 10.56, -0.11 52.79, -0.13 63.35" stroke="#000000" stroke-width="1" fill="none"/></g><g transform="translate(273.96703970599987 377.12120044914946) rotate(0 -0.0630683518332198 31.6764729817707)"><path d="M-10.33 35.14 C-8 41.58, -5.67 48.02, -0.13 63.35 M-10.33 35.14 C-7.73 42.34, -5.12 49.54, -0.13 63.35" stroke="#000000" stroke-width="1" fill="none"/></g><g transform="translate(273.96703970599987 377.12120044914946) rotate(0 -0.0630683518332198 31.6764729817707)"><path d="M10.19 35.18 C7.84 41.61, 5.48 48.04, -0.13 63.35 M10.19 35.18 C7.56 42.37, 4.93 49.56, -0.13 63.35" stroke="#000000" stroke-width="1" fill="none"/></g></g><g stroke-linecap="round"><g transform="translate(344.23630161041797 256.25419340735124) rotate(0 41.187600457024 45.65024026464036)"><path d="M0 0 C13.73 15.22, 68.65 76.08, 82.38 91.3 M0 0 C13.73 15.22, 68.65 76.08, 82.38 91.3" stroke="#000000" stroke-width="1" fill="none"/></g><g transform="translate(344.23630161041797 256.25419340735124) rotate(0 41.187600457024 45.65024026464036)"><path d="M55.87 77.24 C61.76 80.37, 67.66 83.49, 82.38 91.3 M55.87 77.24 C61.81 80.39, 67.74 83.54, 82.38 91.3" stroke="#000000" stroke-width="1" fill="none"/></g><g transform="translate(344.23630161041797 256.25419340735124) rotate(0 41.187600457024 45.65024026464036)"><path d="M71.11 63.5 C73.61 69.68, 76.12 75.86, 82.38 91.3 M71.11 63.5 C73.63 69.72, 76.15 75.95, 82.38 91.3" stroke="#000000" stroke-width="1" fill="none"/></g></g><g stroke-linecap="round"><g transform="translate(345.17990738188627 240.87602430153328) rotate(0 108.6684433904091 48.346455190159496)"><path d="M0 0 C36.22 16.12, 181.11 80.58, 217.34 96.69 M0 0 C36.22 16.12, 181.11 80.58, 217.34 96.69" stroke="#000000" stroke-width="1" fill="none"/></g><g transform="translate(345.17990738188627 240.87602430153328) rotate(0 108.6684433904091 48.346455190159496)"><path d="M187.41 94.61 C196.08 95.21, 204.74 95.82, 217.34 96.69 M187.41 94.61 C196.55 95.25, 205.69 95.88, 217.34 96.69" stroke="#000000" stroke-width="1" fill="none"/></g><g transform="translate(345.17990738188627 240.87602430153328) rotate(0 108.6684433904091 48.346455190159496)"><path d="M195.75 75.86 C202 81.89, 208.25 87.92, 217.34 96.69 M195.75 75.86 C202.35 82.22, 208.94 88.59, 217.34 96.69" stroke="#000000" stroke-width="1" fill="none"/></g></g></svg>